<svg width="24" height="24" viewBox="0 0 24 24" fill="none" xmlns="http://www.w3.org/2000/svg">
<path d="M21.6751 14.6652L20.1399 13.3527C20.2126 12.9074 20.2501 12.4527 20.2501 11.9981C20.2501 11.5434 20.2126 11.0887 20.1399 10.6434L21.6751 9.33087C21.7908 9.23175 21.8737 9.09972 21.9127 8.95235C21.9516 8.80498 21.9447 8.64925 21.893 8.50587L21.8719 8.44493C21.4493 7.26375 20.8165 6.16877 20.004 5.2129L19.9618 5.16368C19.8632 5.04779 19.7318 4.96448 19.585 4.92473C19.4381 4.88499 19.2827 4.89067 19.1391 4.94103L17.2336 5.61837C16.5305 5.04181 15.7454 4.58712 14.8969 4.26837L14.529 2.27618C14.5012 2.12628 14.4285 1.98838 14.3205 1.88079C14.2125 1.7732 14.0743 1.70102 13.9243 1.67384L13.861 1.66212C12.6399 1.44181 11.3555 1.44181 10.1344 1.66212L10.0711 1.67384C9.92114 1.70102 9.78295 1.7732 9.67494 1.88079C9.56694 1.98838 9.49422 2.12628 9.46646 2.27618L9.09615 4.27775C8.25448 4.59656 7.47068 5.05101 6.77584 5.62306L4.8563 4.94103C4.71279 4.89027 4.55722 4.88438 4.41028 4.92415C4.26333 4.96392 4.13197 5.04747 4.03365 5.16368L3.99146 5.2129C3.17993 6.16944 2.54718 7.26424 2.12349 8.44493L2.1024 8.50587C1.99693 8.79884 2.08365 9.12697 2.32037 9.33087L3.87427 10.6574C3.80162 11.0981 3.76646 11.5481 3.76646 11.9957C3.76646 12.4457 3.80162 12.8957 3.87427 13.334L2.32037 14.6606C2.20457 14.7597 2.1217 14.8917 2.08277 15.0391C2.04383 15.1864 2.05068 15.3422 2.1024 15.4856L2.12349 15.5465C2.54771 16.7277 3.17583 17.8176 3.99146 18.7785L4.03365 18.8277C4.13221 18.9436 4.26358 19.027 4.41043 19.0667C4.55729 19.1064 4.71274 19.1008 4.8563 19.0504L6.77584 18.3684C7.47427 18.9426 8.25474 19.3973 9.09615 19.7137L9.46646 21.7152C9.49422 21.8651 9.56694 22.0031 9.67494 22.1106C9.78295 22.2182 9.92114 22.2904 10.0711 22.3176L10.1344 22.3293C11.3667 22.5508 12.6287 22.5508 13.861 22.3293L13.9243 22.3176C14.0743 22.2904 14.2125 22.2182 14.3205 22.1106C14.4285 22.0031 14.5012 21.8651 14.529 21.7152L14.8969 19.7231C15.745 19.4051 16.5346 18.949 17.2336 18.3731L19.1391 19.0504C19.2826 19.1012 19.4382 19.107 19.5851 19.0673C19.7321 19.0275 19.8634 18.944 19.9618 18.8277L20.004 18.7785C20.8196 17.8152 21.4477 16.7277 21.8719 15.5465L21.893 15.4856C21.9985 15.1973 21.9118 14.8692 21.6751 14.6652V14.6652ZM18.4758 10.9199C18.5344 11.2738 18.5649 11.6371 18.5649 12.0004C18.5649 12.3637 18.5344 12.727 18.4758 13.0809L18.3211 14.0207L20.0719 15.5184C19.8065 16.1298 19.4715 16.7087 19.0735 17.2434L16.8985 16.4723L16.1626 17.077C15.6024 17.5363 14.979 17.8973 14.304 18.1504L13.411 18.4856L12.9915 20.759C12.3295 20.834 11.6612 20.834 10.9993 20.759L10.5797 18.4809L9.6938 18.141C9.02583 17.8879 8.40474 17.527 7.84927 17.0699L7.11334 16.4629L4.92427 17.241C4.52583 16.7043 4.19302 16.1254 3.92583 15.516L5.69537 14.0043L5.54302 13.0668C5.48677 12.7176 5.4563 12.3567 5.4563 12.0004C5.4563 11.6418 5.48443 11.2832 5.54302 10.934L5.69537 9.9965L3.92583 8.48478C4.19068 7.87306 4.52583 7.2965 4.92427 6.75978L7.11334 7.5379L7.84927 6.93087C8.40474 6.47384 9.02583 6.1129 9.6938 5.85978L10.5821 5.52462L11.0016 3.2465C11.6602 3.1715 12.3329 3.1715 12.9938 3.2465L13.4133 5.51993L14.3063 5.85509C14.979 6.10822 15.6047 6.46915 16.1649 6.92853L16.9008 7.53322L19.0758 6.76212C19.4743 7.29884 19.8071 7.87775 20.0743 8.48712L18.3235 9.98478L18.4758 10.9199ZM12.0001 7.64103C9.72193 7.64103 7.87505 9.4879 7.87505 11.766C7.87505 14.0442 9.72193 15.891 12.0001 15.891C14.2782 15.891 16.1251 14.0442 16.1251 11.766C16.1251 9.4879 14.2782 7.64103 12.0001 7.64103ZM13.8563 13.6223C13.6128 13.8664 13.3235 14.0601 13.0049 14.192C12.6864 14.3239 12.3449 14.3916 12.0001 14.391C11.2993 14.391 10.6407 14.1168 10.1438 13.6223C9.89964 13.3788 9.70602 13.0895 9.57409 12.7709C9.44216 12.4523 9.37452 12.1108 9.37505 11.766C9.37505 11.0652 9.64927 10.4067 10.1438 9.90978C10.6407 9.4129 11.2993 9.14103 12.0001 9.14103C12.7008 9.14103 13.3594 9.4129 13.8563 9.90978C14.1005 10.1532 14.2941 10.4426 14.426 10.7611C14.5579 11.0797 14.6256 11.4212 14.6251 11.766C14.6251 12.4668 14.3508 13.1254 13.8563 13.6223Z" fill="black"/>
</svg>
